<?xml version="1.0" encoding="UTF-8" standalone="no"?>
<!-- Created with Inkscape (http://www.inkscape.org/) -->

<svg
   version="1.1"
   id="svg1"
   width="794"
   height="1123"
   viewBox="0 0 794 1123"
   sodipodi:docname="Cópia de EDIÇÃO 18 (1).svg"
   inkscape:version="1.3.2 (091e20e, 2023-11-25, custom)"
   xmlns:inkscape="http://www.inkscape.org/namespaces/inkscape"
   xmlns:sodipodi="http://sodipodi.sourceforge.net/DTD/sodipodi-0.dtd"
   xmlns="http://www.w3.org/2000/svg"
   xmlns:svg="http://www.w3.org/2000/svg">
  <defs
     id="defs1">
    <clipPath
       clipPathUnits="userSpaceOnUse"
       id="clipPath2">
      <path
         d="M 0,0 H 2481.2502 V 3509.3752 H 0 Z"
         transform="scale(0.31999999)"
         clip-rule="evenodd"
         id="path2" />
    </clipPath>
    <clipPath
       clipPathUnits="userSpaceOnUse"
       id="clipPath4">
      <path
         d="M 0,0 H 2481.2502 V 3509.3752 H 0 Z"
         transform="scale(0.31999999)"
         clip-rule="evenodd"
         id="path4" />
    </clipPath>
    <clipPath
       clipPathUnits="userSpaceOnUse"
       id="clipPath6">
      <path
         d="M 0,434.31577 H 2481.2502 V 3074.941 L 0,3074.941 Z"
         transform="matrix(0.01364045,0,0,0.01364045,1.2599349,-5.9242629)"
         clip-rule="evenodd"
         id="path6" />
    </clipPath>
    <clipPath
       clipPathUnits="userSpaceOnUse"
       id="clipPath8">
      <path
         d="M 0,434.31577 H 2481.2502 V 3074.941 L 0,3074.941 Z"
         transform="matrix(0.01364045,0,0,0.01364045,1.2599349,-5.9242629)"
         clip-rule="evenodd"
         id="path8" />
    </clipPath>
    <clipPath
       clipPathUnits="userSpaceOnUse"
       id="clipPath10">
      <path
         d="M 0,434.31577 H 2481.2502 V 3074.941 L 0,3074.941 Z"
         transform="matrix(0.01364045,0,0,0.01364045,1.2599349,-5.9242629)"
         clip-rule="evenodd"
         id="path10" />
    </clipPath>
  </defs>
  <sodipodi:namedview
     id="namedview1"
     pagecolor="#ffffff"
     bordercolor="#000000"
     borderopacity="0.25"
     inkscape:showpageshadow="2"
     inkscape:pageopacity="0.0"
     inkscape:pagecheckerboard="0"
     inkscape:deskcolor="#d1d1d1"
     inkscape:zoom="0.76669635"
     inkscape:cx="367.81185"
     inkscape:cy="565.41289"
     inkscape:window-width="1858"
     inkscape:window-height="1057"
     inkscape:window-x="54"
     inkscape:window-y="-8"
     inkscape:window-maximized="1"
     inkscape:current-layer="g1">
    <inkscape:page
       x="0"
       y="0"
       inkscape:label="1"
       id="page1"
       width="794"
       height="1123"
       margin="0"
       bleed="0" />
  </sodipodi:namedview>
  <g
     id="g1"
     inkscape:groupmode="layer"
     inkscape:label="1">
    <path
       id="path5"
       d="M 24,7 C 21,7 21,8 18,8 15,8 15,7 12,7 8,7 3,9 3,16 c 0,11 6,20 10,20 3,0 3,-1 5,-1 2,0 2,1 5,1 4,0 10,-9 10,-20 0,-7.0009995 -5,-9 -9,-9 z"
       style="display:inline;fill:#8b0300;fill-opacity:1;fill-rule:nonzero;stroke:none"
       transform="matrix(23.459635,0,0,23.459635,-29.557613,149.42102)"
       clip-path="url(#clipPath6)" />
    <path
       id="path7"
       d="m 19,7 c 0,0 3,-4 8,-4 4,0 6,2 6,2 0,0 -4,3 -7,3 -3,0 -7,-1 -7,-1 z"
       style="display:inline;fill:#8b0300;fill-opacity:1;fill-rule:nonzero;stroke:none;stroke-width:1.00002;stroke-dasharray:none"
       transform="matrix(23.459635,0,0,23.459635,-29.557613,149.42102)"
       clip-path="url(#clipPath8)" />
    <path
       id="path9"
       d="m 18,10 c -0.552,0 -1,-0.448 -1,-1 0,-3.441 1.200001,-6.6149998 3.292999,-8.70699978 0.391001,-0.391 1.023001,-0.391 1.414,0 0.390999,0.39100003 0.391001,1.02400008 0,1.41400008 C 19.985998,3.4270003 18.999998,6.085 18.999998,9 c 0,0.552 -0.448,1 -1,1 z"
       style="display:inline;fill:#8b0300;fill-opacity:1;fill-rule:nonzero;stroke:none"
       transform="matrix(23.459635,0,0,23.459635,-29.557613,149.42102)"
       clip-path="url(#clipPath10)" />
    <g
       id="g10">
      <g
         id="g11" />
      <path
         id="path11"
         d="m 42.640835,-163.16257 14.662613,12.5701 c 0,-4.18878 1.39626,-6.28505 4.192543,-6.28505 h 2.092508 l 29.332752,75.420621 v 4.185017 h -2.092508 l -4.192544,-12.570104 h -2.092508 v 4.192543 l 14.662612,35.617804 h 2.092507 c 5.58881,-36.314052 13.64082,-74.231361 24.15417,-113.748151 l 6.28505,4.19254 6.28506,-2.10003 12.5701,6.28505 v 2.10004 c -4.19066,0 -6.28505,2.79252 -6.28505,8.37756 h 2.10003 l 2.09251,2.0925 h 2.09251 l 2.10003,-10.47006 h 4.18502 v 2.0925 l -2.09251,2.09251 2.09251,2.10004 v 2.09251 c -10.51335,32.2871 -19.95974,78.581964 -28.33919,138.888355 h -4.19254 l 4.19254,-33.525295 c -2.79628,0 -6.98506,13.270115 -12.5701,39.81034696 C 110.79037,4.4375571 105.8997,6.5338289 101.29881,6.5338289 v 4.1850171 h -2.092507 c 0,-2.7906388 -2.79252,-4.1850171 -8.37756,-4.1850171 V -8.1363104 c 0,-6.3226866 -13.968246,-41.2367156 -41.902856,-104.7458496 H 46.833379 C 41.242693,-87.986579 36.35202,-54.466929 32.16324,-12.321327 l -2.092509,-2.100035 c -8.381324,2.468858 -12.570104,5.9613903 -12.570104,10.4775953 H 13.308084 C 10.517445,-9.201382 9.123067,-18.278954 9.123067,-31.176483 H 7.0230316 v 18.855156 H 2.838015 L 0.73797964,-22.798923 c 0,-37.954939 8.37944206,-84.046577 25.14020836,-138.271147 z m -29.332751,52.37292 v 2.09251 l 2.100035,2.10003 -2.100035,2.09251 v 4.19255 h 2.100035 l 2.092508,-8.38509 -2.092508,-2.09251 z m 79.613167,33.517768 c 3.612964,0 6.405484,5.588804 8.377559,16.762647 v 2.092509 h -2.092507 z m 0,0"
         style="fill:#ffffff;fill-opacity:1;fill-rule:nonzero;stroke:none"
         aria-label="N"
         transform="matrix(2.0758579,0,0,2.0758579,232.72587,830.81808)" />
    </g>
  </g>
</svg>
